{"title":"[Hub Leak] My Little Pony: Friendship is Magic 04x03: Castle-man","uid":9258352,"size":131580183,"categoryP":"video","categoryS":"tv_shows","magnet":"?xt=urn:btih:c344feea9697ece99ce9e98e97c8dd43c1040c16&amp;dn=%5BHub+Leak%5D+My+Little+Pony%3A+Friendship+is+Magic+04x03%3A+Castle-man&amp;tr=udp%3A%2F%2Ftracker.openbittorrent.com%3A80&amp;tr=udp%3A%2F%2Fopen.demonii.com%3A1337&amp;tr=udp%3A%2F%2Ftracker.coppersurfer.tk%3A6969&amp;tr=udp%3A%2F%2Fexodus.desync.com%3A6969","seeders":1,"leechers":0,"uploader":null,"files":1,"time":1385591801,"description":"This is the rip from the hubworld site thrown into the MKV container it deserves.\n\nInput #0, matroska,webm, from 'SR-3HW-04x03.mkv':\n  Duration: 00:22:16.54, start: 0.000000, bitrate: N/A\n    Stream #0.0(eng): Video: h264 (Main), yuv420p, 640x360, PAR 1:1 DAR 16:9, 29.97 fps, 29.97 tbr, 1k tbn, 59.94 tbc (default)\n    Stream #0.1(eng): Audio: aac, 44100 Hz, stereo, s16 (default)\n    Stream #0.2: Attachment: [0][0][0][0] / 0x0000\n\nMD5: 593d03f3f0e0c2aac86d1d011c562f95","torrent":{"xt":"urn:btih:c344feea9697ece99ce9e98e97c8dd43c1040c16","amp;dn":"%5BHub+Leak%5D+My+Little+Pony%3A+Friendship+is+Magic+04x03%3A+Castle-man","amp;tr":["udp%3A%2F%2Ftracker.openbittorrent.com%3A80","udp%3A%2F%2Fopen.demonii.com%3A1337","udp%3A%2F%2Ftracker.coppersurfer.tk%3A6969","udp%3A%2F%2Fexodus.desync.com%3A6969"],"infoHash":"c344feea9697ece99ce9e98e97c8dd43c1040c16","infoHashBuffer":{"type":"Buffer","data":[195,68,254,234,150,151,236,233,156,233,233,142,151,200,221,67,193,4,12,22]},"announce":[],"urlList":[]}}